<?xml version="1.0" encoding="utf-8" standalone="no"?>
<!DOCTYPE svg PUBLIC "-//W3C//DTD SVG 1.1//EN"
  "http://www.w3.org/Graphics/SVG/1.1/DTD/svg11.dtd">
<!-- Created with matplotlib (http://matplotlib.org/) -->
<svg height="391pt" version="1.1" viewBox="0 0 707 391" width="707pt" xmlns="http://www.w3.org/2000/svg" xmlns:xlink="http://www.w3.org/1999/xlink">
 <defs>
  <style type="text/css">
*{stroke-linecap:butt;stroke-linejoin:round;}
  </style>
 </defs>
 <g id="figure_1">
  <g id="patch_1">
   <path d="
M0 391.555
L707.62 391.555
L707.62 0
L0 0
z
" style="fill:#ffffff;"/>
  </g>
  <g id="axes_1">
   <g id="patch_2">
    <path d="
M38.02 368.742
L484.42 368.742
L484.42 23.1417
L38.02 23.1417
z
" style="fill:#ffffff;"/>
   </g>
   <g id="line2d_1">
    <path clip-path="url(#p5cf7c6b60c)" d="
M38.02 86.5105
L39.2298 85.8898
L40.4395 86.4004
L45.2785 88.6929
L46.4883 86.6907
L47.698 86.931
L48.9078 88.2524
L52.5371 87.8219
L53.7468 88.0322
L54.9566 87.4715
L56.1663 89.2635
L57.3761 89.6239
L61.0054 90.9153
L62.2151 90.9453
L63.4249 88.4326
L64.6346 87.7619
L65.8444 89.3836
L69.4737 90.2946
L70.6834 89.1434
L71.8932 88.803
L73.1029 86.6106
L74.3127 88.5828
L77.942 87.5016
L79.1517 87.3414
L80.3615 88.8831
L81.5712 89.5338
L82.781 89.5738
L86.4102 93.9786
L87.62 93.5481
L88.8298 91.8963
L90.0395 92.0765
L94.8785 92.6772
L96.0883 91.3858
L97.298 94.8696
L98.5078 94.4992
L99.7176 91.9164
L103.347 89.6339
L104.557 88.7129
L105.766 88.783
L106.976 87.0911
L108.186 86.9209
L111.815 86.8008
L113.025 87.6317
L114.235 88.0221
L115.444 89.2134
L116.654 91.3958
L120.283 92.6071
L121.493 90.0644
L122.703 88.6228
L123.913 88.5727
L125.122 88.8931
L128.752 89.6039
L129.961 90.0143
L131.171 89.3235
L132.381 91.0454
L133.591 91.4459
L137.22 88.823
L138.43 90.7351
L139.64 90.4748
L140.849 90.7351
L142.059 89.9743
L145.688 88.803
L146.898 89.4137
L148.108 91.0754
L149.318 95.4302
L150.527 101.577
L154.157 109.916
L155.366 112.148
L156.576 104.951
L157.786 100.135
L158.996 100.125
L162.625 101.737
L163.835 107.643
L165.044 103.999
L166.254 103.859
L167.464 106.823
L172.303 101.977
L173.513 104.62
L174.722 103.559
L175.932 102.668
L179.561 103.399
L180.771 100.956
L181.981 99.2243
L183.191 99.6748
L184.4 103.959
L188.03 102.948
L189.24 105.511
L190.449 105.811
L191.659 106.512
L192.869 106.542
L196.498 111.408
L197.708 111.297
L198.918 107.784
L200.127 107.283
L201.337 104.41
L204.966 100.936
L206.176 101.617
L208.596 98.1932
L209.805 98.073
L214.644 99.1542
L215.854 100.115
L217.064 97.0519
L218.274 96.1309
L221.903 96.0308
L223.113 96.2911
L224.322 97.5525
L225.532 94.1388
L226.742 91.8863
L230.371 92.3969
L231.581 92.7973
L232.791 90.4448
L234 90.5649
L235.21 91.4659
L238.84 89.0032
L240.049 88.3925
L241.259 89.0332
L243.679 89.3536
L247.308 91.3157
L248.518 90.8352
L250.937 94.5592
L252.147 96.8617
L255.776 93.7784
L256.986 93.9286
L258.196 90.665
L259.405 90.8452
L260.615 90.0844
L264.244 90.3246
L265.454 90.0443
L266.664 90.0744
L269.083 89.8341
L272.713 90.7051
L273.922 88.7129
L275.132 90.8652
L276.342 93.7884
L277.552 89.774
L281.181 91.0454
L282.391 92.4469
L283.6 94.0587
L284.81 93.5281
L286.02 97.5224
L289.649 96.5014
L290.859 94.369
L292.069 91.3658
L293.279 94.5392
L294.488 99.3845
L298.118 97.7327
L299.327 95.9007
L300.537 93.378
L301.747 93.7183
L306.586 94.1888
L307.796 91.9965
L309.005 93.4681
L310.215 95.5303
L315.054 98.3834
L316.264 98.043
L317.474 100.586
L318.683 105.361
L319.893 107.493
L323.522 107.303
L324.732 105.751
L325.942 110.587
L327.152 107.483
L328.361 111.608
L333.2 111.357
L334.41 113.77
L335.62 112.729
L336.83 108.895
L340.459 111.778
L341.669 109.215
L342.879 111.287
L344.088 110.306
L345.298 105.691
L348.927 105.761
L350.137 109.255
L351.347 108.114
L352.557 107.814
L353.766 111.468
L357.396 114
L358.605 113.99
L359.815 114.15
L361.025 116.563
L362.235 112.789
L367.074 109.636
L368.283 106.532
L369.493 107.323
L370.703 107.413
L374.332 104.63
L375.542 107.093
L376.752 106.212
L377.961 103.869
L379.171 104.32
L382.8 105.851
L384.01 101.297
L386.43 99.6247
L387.64 98.974
L391.269 98.8139
L392.479 101.006
L393.688 100.025
L394.898 99.865
L396.108 96.6415
L399.737 96.9018
L400.947 97.2321
L403.366 94.7695
L404.576 95.0197
L408.205 94.7294
L409.415 94.8395
L410.625 96.191
L411.835 96.2811
L417.883 94.2789
L419.093 93.378
L420.303 93.8785
L421.513 92.477
L425.142 93.1477
L426.352 95.2099
L427.561 92.9775
L428.771 95.4502
L429.981 94.8996
L433.61 95.3801
L436.03 91.3958
L437.24 91.3858
L438.449 91.616
L442.079 90.1545
L443.288 89.4937
L444.498 89.2935
L445.708 90.4247
L446.918 90.4247
L450.547 90.7851
L451.757 90.4748
L452.966 90.0443
L454.176 91.9464
L455.386 93.0676
L459.015 91.4258
L460.225 93.2378
L461.435 94.3891
L462.644 94.4291
L463.854 93.6783
L467.483 93.5081
L468.693 90.9453
L469.903 92.8974
L471.113 92.8374
L472.322 94.6393
L475.952 92.6171
L477.161 94.5492
L478.371 94.4892
L479.581 95.1999
L480.791 93.9085
L484.42 94.1888
L484.42 94.1888" style="fill:none;stroke:#0000ff;stroke-linecap:square;"/>
   </g>
   <g id="line2d_2">
    <path clip-path="url(#p5cf7c6b60c)" d="
M38.02 94.8696
L77.942 94.8696
L79.1517 95.4302
L80.3615 101.577
L81.5712 109.916
L82.781 112.148
L155.366 112.148
L156.576 111.408
L197.708 111.297
L198.918 107.784
L200.127 107.283
L201.337 104.41
L204.966 101.617
L206.176 101.617
L207.386 100.115
L215.854 100.115
L217.064 97.5525
L223.113 97.5525
L224.322 99.3845
L241.259 99.3845
L242.469 100.586
L243.679 105.361
L247.308 107.493
L248.518 107.493
L250.937 110.587
L252.147 110.587
L255.776 111.608
L256.986 111.608
L258.196 113.77
L281.181 113.77
L282.391 114
L283.6 114
L284.81 114.15
L286.02 116.563
L361.025 116.563
L362.235 112.789
L367.074 109.636
L368.283 107.413
L370.703 107.413
L375.542 107.093
L376.752 106.212
L377.961 105.851
L382.8 105.851
L384.01 101.297
L385.22 101.006
L392.479 101.006
L393.688 100.025
L394.898 99.865
L396.108 97.2321
L400.947 97.2321
L402.157 96.2811
L411.835 96.2811
L411.835 96.2811" style="fill:none;stroke:#008000;stroke-linecap:square;"/>
   </g>
   <g id="line2d_3">
    <path clip-path="url(#p5cf7c6b60c)" d="
M38.02 85.8898
L39.2298 85.8898
L40.4395 86.4004
L47.698 86.6106
L73.1029 86.6106
L74.3127 86.8008
L111.815 86.8008
L113.025 87.6317
L114.235 88.0221
L115.444 88.5727
L123.913 88.5727
L125.122 88.803
L145.688 88.803
L146.898 89.4137
L148.108 91.0754
L149.318 95.4302
L150.527 96.0308
L154.157 96.0308
L155.366 94.1388
L156.576 91.8863
L158.996 91.8863
L162.625 90.4448
L165.044 90.4448
L166.254 89.0032
L167.464 88.3925
L240.049 88.3925
L241.259 88.7129
L273.922 88.7129
L275.132 89.774
L277.552 89.774
L282.391 91.3658
L292.069 91.3658
L293.279 91.9965
L307.796 91.9965
L309.005 93.4681
L310.215 95.5303
L315.054 98.043
L316.264 98.043
L317.474 98.8139
L323.522 98.8139
L324.732 96.6415
L327.152 96.6415
L328.361 96.0609
L333.2 94.7695
L342.879 94.7294
L344.088 94.2789
L345.298 93.378
L348.927 93.378
L350.137 92.477
L361.025 92.477
L362.235 91.3958
L368.283 91.3858
L369.493 90.1545
L370.703 89.4937
L375.542 89.2935
L411.835 89.2935
L411.835 89.2935" style="fill:none;stroke:#ff0000;stroke-linecap:square;"/>
   </g>
   <g id="line2d_4">
    <path clip-path="url(#p5cf7c6b60c)" d="
M38.02 221.087
L39.2298 219.393
L40.4395 221.31
L45.2785 229.231
L46.4883 223.478
L47.698 224.282
L48.9078 228.607
L52.5371 227.314
L53.7468 228.02
L54.9566 226.25
L56.1663 232.249
L57.3761 233.391
L61.0054 237.358
L62.2151 237.449
L63.4249 228.817
L64.6346 226.74
L65.8444 232.019
L69.4737 234.786
L70.6834 231.009
L71.8932 229.916
L73.1029 223.343
L74.3127 229.672
L77.942 226.563
L79.1517 226.105
L80.3615 230.973
L81.5712 232.928
L82.781 233.05
L86.4102 244.679
L87.62 243.214
L88.8298 237.804
L90.0395 238.268
L94.8785 239.837
L96.0883 235.56
L97.298 244.121
L98.5078 242.906
L99.7176 235.001
L103.347 228.931
L104.557 226.653
L105.766 226.849
L106.976 222.684
L108.186 222.275
L111.815 221.976
L113.025 224.647
L114.235 225.897
L115.444 229.631
L116.654 235.838
L120.283 238.969
L121.493 231.402
L122.703 227.564
L123.913 227.432
L125.122 228.385
L128.752 230.507
L129.961 231.732
L131.171 229.598
L132.381 234.742
L133.591 235.885
L137.22 227.847
L138.43 233.316
L139.64 232.542
L140.849 233.291
L142.059 230.912
L145.688 227.386
L146.898 229.335
L148.108 234.36
L150.527 255.744
L154.157 265.295
L155.366 267.272
L156.576 250.01
L157.786 240.914
L158.996 240.896
L162.625 243.034
L163.835 249.98
L165.044 243.461
L166.254 243.218
L167.464 246.691
L172.303 238.543
L173.513 241.708
L174.722 239.993
L175.932 238.542
L179.561 239.496
L180.771 235.44
L181.981 232.686
L183.191 233.358
L184.4 239.391
L188.03 237.672
L189.24 241.1
L190.449 241.496
L191.659 242.441
L192.869 242.483
L196.498 248.791
L197.708 248.562
L198.918 241.55
L200.127 240.598
L201.337 235.313
L204.966 229.546
L206.176 230.652
L208.596 225.204
L209.805 225.016
L214.644 227.182
L215.854 229.031
L217.064 223.711
L218.274 222.203
L221.903 222.035
L223.113 222.613
L224.322 225.421
L225.532 219.415
L226.742 215.878
L230.371 217.074
L231.581 218.032
L232.791 214.25
L234 214.554
L235.21 216.873
L238.84 212.851
L240.049 211.899
L241.259 213.649
L242.469 214.235
L243.679 214.554
L247.308 220.1
L248.518 219.133
L252.147 234.184
L255.776 227.329
L256.986 227.675
L258.196 221.153
L259.405 221.598
L260.615 220.125
L264.244 220.764
L265.454 220.185
L266.664 220.272
L269.083 219.737
L272.713 222.405
L273.922 217.878
L275.132 224.217
L276.342 231.717
L277.552 222.903
L281.181 225.969
L283.6 232.781
L284.81 231.556
L286.02 239.677
L289.649 237.25
L290.859 232.427
L292.069 226.328
L293.279 232.695
L294.488 240.868
L298.118 237.543
L299.327 234.009
L300.537 229.447
L301.747 230.065
L306.586 230.942
L307.796 226.905
L309.005 229.759
L310.215 233.571
L315.054 238.415
L316.264 237.715
L317.474 241.832
L318.683 248.526
L319.893 251.155
L323.522 250.725
L324.732 247.207
L325.942 253.183
L327.152 246.64
L328.361 251.428
L333.2 250.913
L334.41 253.575
L335.62 251.349
L336.83 243.677
L340.459 247.203
L341.669 242.441
L342.879 245.011
L344.088 243.185
L345.298 235.233
L348.927 235.332
L350.137 240.14
L351.347 238.173
L352.557 237.647
L353.766 242.626
L357.396 245.772
L358.605 245.752
L359.815 245.958
L361.025 249.015
L362.235 241.526
L367.074 235.942
L368.283 230.94
L369.493 232.15
L370.703 232.292
L374.332 227.775
L375.542 231.785
L376.752 230.341
L377.961 226.61
L379.171 227.398
L382.8 230.075
L384.01 222.956
L386.43 220.543
L387.64 219.588
L391.269 219.346
L392.479 223.86
L393.688 222.253
L394.898 221.987
L396.108 216.855
L399.737 217.444
L400.947 218.215
L403.366 214.236
L404.576 214.883
L408.205 214.395
L409.415 214.703
L410.625 218.482
L411.835 218.734
L417.883 214.702
L419.093 212.986
L420.303 214.581
L421.513 211.852
L425.142 214.055
L426.352 220.463
L427.561 215.833
L428.771 222.824
L429.981 221.649
L433.61 222.99
L436.03 214.8
L437.24 214.781
L438.449 215.508
L442.079 212.588
L443.288 211.311
L444.498 210.918
L445.708 214.867
L446.918 214.867
L450.547 216.169
L451.757 215.42
L452.966 214.365
L454.176 221.436
L455.386 225.25
L459.015 220.799
L460.225 226.682
L461.435 230.138
L462.644 230.258
L463.854 227.998
L467.483 227.482
L468.693 220.282
L469.903 226.633
L471.113 226.465
L472.322 231.952
L475.952 226.228
L477.161 231.745
L478.371 231.573
L479.581 233.577
L480.791 229.741
L484.42 230.576
L484.42 230.576" style="fill:none;stroke:#00bfbf;stroke-linecap:square;"/>
   </g>
   <g id="line2d_5">
    <path clip-path="url(#p5cf7c6b60c)" d="
M38.02 236.687
L39.2298 236.549
L40.4395 235.491
L45.2785 233.336
L46.4883 227.836
L47.698 228.267
L48.9078 233.82
L52.5371 231.649
L53.7468 228.486
L54.9566 228.521
L56.1663 234.231
L57.3761 236.787
L61.0054 238.199
L62.2151 239.929
L63.4249 236.223
L64.6346 234.677
L65.8444 236.66
L69.4737 241.844
L70.6834 240.244
L71.8932 232.317
L73.1029 229.78
L74.3127 232.77
L77.942 231.783
L79.1517 233.291
L80.3615 235.151
L81.5712 235.843
L82.781 235.869
L86.4102 243.029
L87.62 241.424
L88.8298 241.176
L90.0395 242.414
L94.8785 241.176
L96.0883 238.302
L97.298 242.072
L98.5078 248.738
L99.7176 245.61
L103.347 238.729
L104.557 238.396
L105.766 240.47
L106.976 238.575
L108.186 238.976
L111.815 238.777
L113.025 239.426
L115.444 241.144
L116.654 240.987
L120.283 245.041
L121.493 241.825
L122.703 237.87
L123.913 237.872
L125.122 237.202
L128.752 239.445
L131.171 234.866
L132.381 236.129
L133.591 237.045
L137.22 238.359
L138.43 241.718
L139.64 241.421
L140.849 237.921
L142.059 238.826
L145.688 239.212
L146.898 243.662
L148.108 244.727
L149.318 252.092
L150.527 264.516
L154.157 278.559
L155.366 278.13
L156.576 270.095
L157.786 257.368
L158.996 255.841
L162.625 257.485
L163.835 261.373
L165.044 259.098
L166.254 257.607
L167.464 258.791
L172.303 256.492
L173.513 257.523
L174.722 259.372
L175.932 259.638
L179.561 259.688
L180.771 259.471
L181.981 258.494
L183.191 257.126
L184.4 259.264
L188.03 259.089
L189.24 259.887
L190.449 259.357
L191.659 259.335
L192.869 259.684
L196.498 262.277
L197.708 262.595
L198.918 260.398
L200.127 259.799
L201.337 258.077
L204.966 255.493
L206.176 255.044
L207.386 254.17
L208.596 253.985
L209.805 253.115
L214.644 253.257
L215.854 253.633
L217.064 252.797
L218.274 252.212
L221.903 251.51
L223.113 249.863
L224.322 244.394
L225.532 219.59
L226.742 217.721
L230.371 222.153
L231.581 231.163
L232.791 230.847
L234 229.234
L235.21 218.552
L238.84 219.888
L240.049 221.021
L241.259 214.045
L242.469 217.775
L243.679 217.465
L247.308 218.768
L248.518 219.049
L250.937 223.799
L252.147 228.803
L255.776 229.823
L256.986 218.581
L258.196 216.634
L259.405 210.804
L260.615 210.298
L264.244 207.448
L265.454 208.918
L266.664 197.459
L269.083 194.802
L272.713 198.412
L273.922 198.092
L275.132 202.539
L276.342 216.577
L277.552 212.851
L281.181 214.04
L282.391 218.955
L283.6 222.327
L284.81 222.301
L286.02 231.747
L289.649 231.609
L290.859 229.496
L292.069 226.044
L293.279 228.119
L294.488 240.086
L298.118 239.221
L299.327 240.404
L300.537 242.015
L301.747 241.735
L306.586 241.938
L307.796 241.845
L310.215 244.1
L315.054 251.525
L316.264 251.549
L317.474 253.3
L318.683 257.043
L319.893 258.538
L323.522 258.798
L324.732 256.589
L325.942 258.732
L327.152 256.956
L328.361 259.98
L333.2 260
L334.41 264.457
L335.62 263.269
L336.83 259.326
L340.459 260.59
L341.669 259.276
L344.088 259.789
L345.298 254.34
L348.927 253.429
L350.137 255.793
L351.347 255.789
L352.557 253.088
L353.766 256.926
L357.396 259.21
L358.605 258.317
L359.815 256.882
L361.025 259.06
L362.235 254.538
L367.074 251.869
L368.283 251.659
L369.493 254.485
L370.703 254.241
L374.332 248.081
L375.542 248.884
L376.752 250.577
L377.961 250.558
L379.171 249.895
L382.8 250.18
L384.01 249.34
L386.43 247.044
L387.64 242.509
L391.269 243.077
L392.479 242.382
L393.688 238.499
L394.898 236.377
L396.108 233.109
L399.737 234.145
L400.947 231.411
L402.157 231.024
L403.366 222.468
L404.576 223.232
L408.205 215.468
L409.415 217.776
L410.625 222.064
L411.835 220.77
L417.883 219.903
L419.093 218.717
L420.303 224.692
L421.513 225.412
L425.142 220.016
L426.352 220.483
L427.561 221.427
L428.771 217.739
L429.981 206.911
L433.61 207.568
L434.82 208.243
L436.03 193.233
L437.24 195.532
L438.449 198.917
L442.079 202.408
L443.288 201.371
L444.498 198.925
L445.708 203.385
L446.918 200.392
L450.547 197.515
L451.757 199.947
L452.966 201.15
L454.176 199.575
L455.386 211.305
L459.015 212.415
L460.225 217.394
L461.435 221.875
L462.644 221.88
L463.854 217.377
L467.483 217.054
L468.693 214.895
L469.903 222.27
L471.113 225.003
L472.322 226.467
L475.952 227.592
L477.161 234.383
L478.371 235.679
L479.581 238.576
L480.791 234.525
L484.42 233.128
L484.42 233.128" style="fill:none;stroke:#ff8c00;stroke-linecap:square;"/>
   </g>
   <g id="line2d_6">
    <path clip-path="url(#p5cf7c6b60c)" d="
M38.02 299.086
L39.2298 299.329
L46.4883 299.329
L47.698 297.047
L54.9566 297.047
L56.1663 295.876
L63.4249 295.876
L64.6346 316.966
L71.8932 316.966
L73.1029 311.915
L80.3615 311.915
L81.5712 280.422
L88.8298 280.422
L90.0395 316.868
L97.298 316.868
L98.5078 301.375
L105.766 301.375
L106.976 289.16
L114.235 289.16
L115.444 290.028
L122.703 290.028
L123.913 326.714
L131.171 326.714
L132.381 309.765
L139.64 309.765
L140.849 307.498
L148.108 307.498
L149.318 308.626
L156.576 308.626
L157.786 307.597
L165.044 307.597
L166.254 298.638
L173.513 298.638
L174.722 300.118
L181.981 300.118
L183.191 293.909
L190.449 293.909
L191.659 294.886
L198.918 294.886
L200.127 315.951
L207.386 315.951
L208.596 286.719
L215.854 286.719
L217.064 290.03
L224.322 290.03
L225.532 284.772
L232.791 284.772
L234 272.245
L241.259 272.245
L242.469 271.421
L248.518 271.421
L250.937 284.045
L258.196 284.045
L259.405 299.318
L275.132 299.318
L276.342 288.155
L283.6 288.155
L284.81 301.529
L292.069 301.529
L293.279 321.067
L300.537 321.067
L301.747 306.689
L309.005 306.689
L310.215 297.607
L317.474 297.607
L318.683 321.86
L325.942 321.86
L327.152 337.813
L334.41 337.813
L335.62 337.202
L342.879 337.202
L344.088 313.738
L351.347 313.738
L352.557 309.533
L359.815 309.533
L361.025 340.346
L368.283 340.346
L369.493 313.78
L376.752 313.78
L377.961 299.928
L385.22 299.928
L386.43 295.797
L393.688 295.797
L394.898 281.673
L402.157 281.673
L403.366 295.337
L410.625 295.337
L411.835 285.705
L419.093 285.705
L420.303 297.659
L427.561 297.659
L428.771 284.788
L436.03 284.788
L437.24 295.539
L444.498 295.539
L445.708 286.513
L452.966 286.513
L454.176 301.328
L461.435 301.328
L462.644 310.694
L469.903 310.694
L471.113 314.668
L478.371 314.668
L479.581 320.024
L484.42 320.024
L484.42 320.024" style="fill:none;stroke:#bf00bf;stroke-linecap:square;"/>
   </g>
   <g id="line2d_7">
    <path clip-path="url(#p5cf7c6b60c)" d="
M38.02 170.937
L39.2298 161.382
L40.4395 161.382
L45.2785 196.235
L46.4883 162.722
L47.698 166.744
L48.9078 188.862
L52.5371 181.657
L53.7468 185.176
L54.9566 175.792
L56.1663 205.786
L57.3761 211.818
L61.0054 233.434
L62.2151 233.937
L63.4249 191.878
L64.6346 180.651
L65.8444 207.797
L69.4737 223.045
L70.6834 203.775
L71.8932 198.078
L73.1029 161.382
L74.3127 191.911
L77.942 173.388
L79.1517 170.042
L80.3615 180.863
L81.5712 177.726
L82.781 176.505
L86.4102 200.528
L87.62 198.18
L88.8298 189.172
L90.0395 190.154
L94.8785 193.43
L96.0883 186.387
L97.298 205.387
L98.5078 203.367
L99.7176 189.281
L103.347 176.833
L104.557 171.81
L105.766 172.192
L106.976 162.965
L108.186 162.037
L111.815 161.382
L114.235 161.382
L115.444 165.139
L116.654 177.935
L120.283 185.038
L121.493 170.128
L122.703 161.675
L123.913 161.382
L125.122 161.915
L128.752 166.124
L129.961 168.555
L131.171 164.464
L132.381 174.66
L133.591 177.032
L137.22 161.5
L138.43 172.823
L139.64 171.281
L140.849 172.823
L142.059 168.317
L145.688 161.382
L149.318 161.382
L150.527 208.95
L154.157 280.474
L155.366 299.622
L156.576 253.896
L157.786 219.797
L158.996 219.726
L162.625 235.849
L163.835 274.799
L165.044 250.769
L166.254 253.048
L167.464 272.082
L172.303 242.979
L173.513 258.853
L174.722 252.479
L175.932 247.128
L179.561 251.517
L180.771 236.846
L181.981 226.443
L183.191 229.149
L184.4 254.885
L188.03 248.811
L189.24 264.205
L190.449 266.009
L191.659 270.218
L192.869 270.398
L196.498 299.622
L201.337 299.622
L204.966 292.506
L206.176 299.622
L207.386 298.205
L208.596 276.955
L209.805 275.539
L214.644 288.289
L215.854 299.622
L217.064 292.068
L218.274 278.168
L221.903 276.657
L223.113 280.585
L224.322 276.582
L225.532 233.649
L226.742 205.322
L230.371 211.742
L231.581 216.778
L232.791 187.192
L234 188.702
L235.21 200.034
L238.84 169.062
L240.049 161.382
L241.259 165.531
L242.469 167.559
L243.679 166.702
L247.308 180.541
L248.518 177.004
L250.937 198.33
L252.147 212.882
L255.776 191.967
L256.986 192.874
L258.196 172.152
L259.405 173.146
L260.615 168.948
L264.244 170.274
L265.454 168.727
L266.664 168.893
L269.083 167.567
L272.713 172.372
L273.922 161.382
L275.132 167.668
L276.342 184.508
L277.552 161.382
L281.181 161.382
L282.391 167.985
L283.6 177.829
L284.81 174.501
L286.02 195.159
L289.649 189.557
L290.859 177.859
L292.069 161.382
L293.279 175.69
L294.488 202.955
L298.118 193.66
L299.327 183.351
L300.537 169.156
L301.747 171.071
L306.586 173.719
L307.796 161.382
L310.215 161.382
L315.054 163.922
L316.264 161.382
L317.474 175.182
L318.683 212.374
L319.893 228.981
L323.522 227.5
L324.732 224.597
L325.942 258.15
L327.152 236.615
L328.361 266.209
L333.2 266.602
L334.41 281.905
L335.62 275.346
L336.83 251.07
L340.459 269.324
L341.669 253.098
L342.879 266.218
L344.088 260.808
L345.298 234.799
L348.927 235.217
L350.137 257.679
L351.347 251.129
L352.557 249.405
L353.766 270.376
L357.396 284.913
L358.605 284.856
L359.815 285.775
L361.025 299.622
L367.074 299.622
L368.283 292.023
L369.493 298.9
L370.703 299.622
L374.332 280.495
L375.542 299.622
L376.752 299.622
L377.961 283.073
L379.171 286.834
L382.8 299.622
L384.01 299.622
L385.22 292.532
L386.43 283.316
L387.64 275.637
L391.269 273.746
L392.479 299.622
L394.898 299.622
L396.108 289.337
L399.737 293.869
L400.947 299.622
L402.157 295.265
L403.366 269.716
L404.576 274.667
L408.205 268.924
L409.415 271.102
L410.625 297.839
L411.835 299.622
L411.835 299.622" style="fill:none;stroke:#808080;stroke-linecap:square;"/>
   </g>
   <g id="line2d_8">
    <path clip-path="url(#p5cf7c6b60c)" d="
M38.02 188.758
L39.2298 191.959
L40.4395 196.629
L45.2785 222.29
L46.4883 200.287
L47.698 206.476
L48.9078 225.288
L52.5371 217.159
L53.7468 220.264
L54.9566 215.803
L56.1663 231.755
L57.3761 233.996
L61.0054 237.74
L62.2151 236.733
L63.4249 225.268
L64.6346 218.455
L65.8444 233.281
L69.4737 238.319
L70.6834 235.613
L71.8932 236.856
L73.1029 218.13
L74.3127 237.012
L77.942 225.479
L79.1517 226.275
L80.3615 239.283
L81.5712 241
L82.781 240
L86.4102 250.435
L87.62 251.824
L88.8298 252.597
L90.0395 250.966
L94.8785 253.511
L96.0883 251.152
L97.298 255.763
L98.5078 259.183
L99.7176 258.824
L103.347 253.806
L104.557 244.033
L105.766 244.96
L106.976 230.559
L108.186 226.507
L111.815 225.023
L113.025 238.969
L114.235 238.228
L115.444 243.859
L116.654 251.886
L120.283 253.764
L121.493 248.617
L122.703 239.685
L123.913 241.276
L125.122 241.35
L128.752 245.438
L129.961 250.357
L131.171 246.821
L132.381 252.271
L133.591 251.925
L137.22 241.108
L138.43 251.408
L140.849 254.564
L142.059 252.205
L145.688 244.171
L146.898 245.273
L148.108 255.921
L149.318 258.712
L150.527 262.416
L154.157 265.62
L155.366 263.652
L156.576 256.475
L157.786 254.666
L158.996 253.939
L162.625 254.609
L163.835 250.61
L165.044 250.425
L166.254 250.428
L167.464 249.118
L172.303 246.663
L173.513 245.533
L174.722 244.122
L175.932 244.659
L179.561 245.896
L180.771 243.658
L181.981 243.572
L183.191 247.69
L184.4 249.844
L188.03 250.842
L189.24 245.208
L190.449 246.498
L191.659 246.287
L192.869 249.138
L196.498 252.381
L197.708 251.936
L200.127 248.773
L201.337 247.686
L204.966 246.066
L206.176 250.241
L207.386 247.464
L208.596 247.378
L209.805 245.179
L214.644 250.451
L215.854 251.14
L217.064 246.029
L218.274 241.751
L221.903 239.075
L223.113 236.113
L224.322 239.256
L225.532 228.737
L226.742 219.973
L230.371 225.29
L231.581 230.134
L232.791 216.516
L234 215.704
L235.21 222.319
L240.049 209.163
L241.259 213.972
L242.469 214.892
L243.679 210.973
L247.308 224.956
L248.518 224.568
L250.937 242.397
L252.147 245.855
L255.776 240.136
L256.986 243.616
L258.196 227.265
L259.405 226.989
L260.615 223.158
L264.244 224.194
L265.454 223.759
L266.664 223.918
L269.083 225.876
L272.713 232.46
L273.922 220.707
L275.132 231.881
L276.342 253.326
L277.552 227.729
L281.181 233.986
L282.391 246.762
L283.6 254.627
L284.81 253.34
L286.02 260.495
L289.649 260.445
L290.859 258.962
L292.069 249.582
L293.279 261.235
L294.488 263.23
L298.118 260.744
L299.327 260.134
L300.537 256.76
L301.747 257.915
L306.586 261.754
L307.796 253.885
L309.005 261.297
L310.215 264.781
L315.054 267.842
L316.264 271.712
L317.474 268.409
L318.683 260.994
L319.893 261.763
L323.522 262.068
L324.732 261.37
L325.942 259.884
L327.152 251.422
L328.361 249.505
L333.2 251.249
L334.41 248.162
L335.62 246.674
L336.83 246.875
L340.459 247.201
L341.669 245.984
L342.879 246.255
L344.088 247.662
L345.298 246.38
L348.927 246.47
L350.137 246.819
L351.347 244.365
L352.557 246.923
L353.766 246.521
L357.396 248.997
L358.605 247.558
L359.815 249.999
L361.025 253.056
L362.235 251.362
L367.074 248.517
L368.283 247.442
L369.493 247.617
L370.703 249.363
L374.332 244.909
L375.542 247.806
L376.752 250.373
L377.961 245.954
L379.171 245.462
L382.8 248.685
L384.01 243.98
L385.22 237.905
L386.43 235.58
L387.64 237.796
L391.269 234.892
L392.479 239.562
L393.688 237.113
L394.898 237.926
L396.108 234.009
L399.737 234.22
L400.947 233.326
L404.576 222.244
L408.205 221.489
L409.415 223.551
L411.835 229.452
L417.883 221.763
L419.093 222.559
L420.303 220.359
L421.513 212.299
L425.142 217.918
L426.352 226.942
L427.561 218.958
L428.771 231.349
L429.981 227.197
L433.61 233.982
L434.82 226.783
L436.03 213.552
L437.24 211.547
L438.449 212.274
L442.079 212.039
L443.288 213.895
L444.498 214.269
L445.708 215.477
L446.918 216.88
L450.547 217.863
L451.757 218.662
L452.966 219.781
L454.176 229.317
L455.386 233.988
L459.015 227.48
L461.435 242.411
L462.644 245.103
L463.854 239.224
L467.483 241.569
L468.693 229.379
L469.903 239.778
L471.113 240.501
L472.322 250.713
L475.952 242.571
L477.161 251.247
L478.371 249.989
L479.581 251.146
L480.791 251.854
L484.42 250.587
L484.42 250.587" style="fill:none;stroke:#000000;stroke-linecap:square;"/>
   </g>
   <g id="line2d_9">
    <path clip-path="url(#p5cf7c6b60c)" d="
M38.02 334.182
L484.42 334.182" style="fill:none;stroke:#808080;stroke-dasharray:3.000000,5.000000,1.000000,5.000000;stroke-dashoffset:0.0;"/>
   </g>
   <g id="line2d_10">
    <path clip-path="url(#p5cf7c6b60c)" d="
M38.02 265.062
L484.42 265.062" style="fill:none;stroke:#808080;stroke-dasharray:3.000000,5.000000,1.000000,5.000000;stroke-dashoffset:0.0;"/>
   </g>
   <g id="line2d_11">
    <path clip-path="url(#p5cf7c6b60c)" d="
M38.02 195.942
L484.42 195.942" style="fill:none;stroke:#808080;stroke-dasharray:3.000000,5.000000,1.000000,5.000000;stroke-dashoffset:0.0;"/>
   </g>
   <g id="matplotlib.axis_1">
    <g id="xtick_1">
     <g id="line2d_12">
      <path clip-path="url(#p5cf7c6b60c)" d="
M88.8298 368.742
L88.8298 23.1417" style="fill:none;stroke:#000000;stroke-dasharray:1.000000,3.000000;stroke-dashoffset:0.0;stroke-width:0.5;"/>
     </g>
     <g id="line2d_13">
      <defs>
       <path d="
M0 0
L0 -4" id="m93b0483c22" style="stroke:#000000;stroke-width:0.5;"/>
      </defs>
      <g>
       <use style="stroke:#000000;stroke-width:0.5;" x="88.8297560976" xlink:href="#m93b0483c22" y="368.74175"/>
      </g>
     </g>
     <g id="line2d_14">
      <defs>
       <path d="
M0 0
L0 4" id="m741efc42ff" style="stroke:#000000;stroke-width:0.5;"/>
      </defs>
      <g>
       <use style="stroke:#000000;stroke-width:0.5;" x="88.8297560976" xlink:href="#m741efc42ff" y="23.14175"/>
      </g>
     </g>
     <g id="text_1">
      <!-- Jul 2015 -->
      <defs>
       <path d="
M9.8125 72.9062
L19.6719 72.9062
L19.6719 5.07812
Q19.6719 -8.10938 14.6719 -14.0625
Q9.67188 -20.0156 -1.42188 -20.0156
L-5.17188 -20.0156
L-5.17188 -11.7188
L-2.09375 -11.7188
Q4.4375 -11.7188 7.125 -8.04688
Q9.8125 -4.39062 9.8125 5.07812
z
" id="DejaVuSans-4a"/>
       <path d="
M9.42188 75.9844
L18.4062 75.9844
L18.4062 0
L9.42188 0
z
" id="DejaVuSans-6c"/>
       <path d="
M12.4062 8.29688
L28.5156 8.29688
L28.5156 63.9219
L10.9844 60.4062
L10.9844 69.3906
L28.4219 72.9062
L38.2812 72.9062
L38.2812 8.29688
L54.3906 8.29688
L54.3906 0
L12.4062 0
z
" id="DejaVuSans-31"/>
       <path d="
M31.7812 66.4062
Q24.1719 66.4062 20.3281 58.9062
Q16.5 51.4219 16.5 36.375
Q16.5 21.3906 20.3281 13.8906
Q24.1719 6.39062 31.7812 6.39062
Q39.4531 6.39062 43.2812 13.8906
Q47.125 21.3906 47.125 36.375
Q47.125 51.4219 43.2812 58.9062
Q39.4531 66.4062 31.7812 66.4062
M31.7812 74.2188
Q44.0469 74.2188 50.5156 64.5156
Q56.9844 54.8281 56.9844 36.375
Q56.9844 17.9688 50.5156 8.26562
Q44.0469 -1.42188 31.7812 -1.42188
Q19.5312 -1.42188 13.0625 8.26562
Q6.59375 17.9688 6.59375 36.375
Q6.59375 54.8281 13.0625 64.5156
Q19.5312 74.2188 31.7812 74.2188" id="DejaVuSans-30"/>
       <path id="DejaVuSans-20"/>
       <path d="
M19.1875 8.29688
L53.6094 8.29688
L53.6094 0
L7.32812 0
L7.32812 8.29688
Q12.9375 14.1094 22.625 23.8906
Q32.3281 33.6875 34.8125 36.5312
Q39.5469 41.8438 41.4219 45.5312
Q43.3125 49.2188 43.3125 52.7812
Q43.3125 58.5938 39.2344 62.25
Q35.1562 65.9219 28.6094 65.9219
Q23.9688 65.9219 18.8125 64.3125
Q13.6719 62.7031 7.8125 59.4219
L7.8125 69.3906
Q13.7656 71.7812 18.9375 73
Q24.125 74.2188 28.4219 74.2188
Q39.75 74.2188 46.4844 68.5469
Q53.2188 62.8906 53.2188 53.4219
Q53.2188 48.9219 51.5312 44.8906
Q49.8594 40.875 45.4062 35.4062
Q44.1875 33.9844 37.6406 27.2188
Q31.1094 20.4531 19.1875 8.29688" id="DejaVuSans-32"/>
       <path d="
M10.7969 72.9062
L49.5156 72.9062
L49.5156 64.5938
L19.8281 64.5938
L19.8281 46.7344
Q21.9688 47.4688 24.1094 47.8281
Q26.2656 48.1875 28.4219 48.1875
Q40.625 48.1875 47.75 41.5
Q54.8906 34.8125 54.8906 23.3906
Q54.8906 11.625 47.5625 5.09375
Q40.2344 -1.42188 26.9062 -1.42188
Q22.3125 -1.42188 17.5469 -0.640625
Q12.7969 0.140625 7.71875 1.70312
L7.71875 11.625
Q12.1094 9.23438 16.7969 8.0625
Q21.4844 6.89062 26.7031 6.89062
Q35.1562 6.89062 40.0781 11.3281
Q45.0156 15.7656 45.0156 23.3906
Q45.0156 31 40.0781 35.4375
Q35.1562 39.8906 26.7031 39.8906
Q22.75 39.8906 18.8125 39.0156
Q14.8906 38.1406 10.7969 36.2812
z
" id="DejaVuSans-35"/>
       <path d="
M8.5 21.5781
L8.5 54.6875
L17.4844 54.6875
L17.4844 21.9219
Q17.4844 14.1562 20.5 10.2656
Q23.5312 6.39062 29.5938 6.39062
Q36.8594 6.39062 41.0781 11.0312
Q45.3125 15.6719 45.3125 23.6875
L45.3125 54.6875
L54.2969 54.6875
L54.2969 0
L45.3125 0
L45.3125 8.40625
Q42.0469 3.42188 37.7188 1
Q33.4062 -1.42188 27.6875 -1.42188
Q18.2656 -1.42188 13.375 4.4375
Q8.5 10.2969 8.5 21.5781
M31.1094 56
z
" id="DejaVuSans-75"/>
      </defs>
      <g transform="translate(64.6272560976 381.859875)scale(0.12 -0.12)">
       <use xlink:href="#DejaVuSans-4a"/>
       <use x="29.4921875" xlink:href="#DejaVuSans-75"/>
       <use x="92.87109375" xlink:href="#DejaVuSans-6c"/>
       <use x="120.654296875" xlink:href="#DejaVuSans-20"/>
       <use x="152.44140625" xlink:href="#DejaVuSans-32"/>
       <use x="216.064453125" xlink:href="#DejaVuSans-30"/>
       <use x="279.6875" xlink:href="#DejaVuSans-31"/>
       <use x="343.310546875" xlink:href="#DejaVuSans-35"/>
      </g>
     </g>
    </g>
    <g id="xtick_2">
     <g id="line2d_15">
      <path clip-path="url(#p5cf7c6b60c)" d="
M163.835 368.742
L163.835 23.1417" style="fill:none;stroke:#000000;stroke-dasharray:1.000000,3.000000;stroke-dashoffset:0.0;stroke-width:0.5;"/>
     </g>
     <g id="line2d_16">
      <g>
       <use style="stroke:#000000;stroke-width:0.5;" x="163.834634146" xlink:href="#m93b0483c22" y="368.74175"/>
      </g>
     </g>
     <g id="line2d_17">
      <g>
       <use style="stroke:#000000;stroke-width:0.5;" x="163.834634146" xlink:href="#m741efc42ff" y="23.14175"/>
      </g>
     </g>
     <g id="text_2">
      <!-- Sep 2015 -->
      <defs>
       <path d="
M53.5156 70.5156
L53.5156 60.8906
Q47.9062 63.5781 42.9219 64.8906
Q37.9375 66.2188 33.2969 66.2188
Q25.25 66.2188 20.875 63.0938
Q16.5 59.9688 16.5 54.2031
Q16.5 49.3594 19.4062 46.8906
Q22.3125 44.4375 30.4219 42.9219
L36.375 41.7031
Q47.4062 39.5938 52.6562 34.2969
Q57.9062 29 57.9062 20.125
Q57.9062 9.51562 50.7969 4.04688
Q43.7031 -1.42188 29.9844 -1.42188
Q24.8125 -1.42188 18.9688 -0.25
Q13.1406 0.921875 6.89062 3.21875
L6.89062 13.375
Q12.8906 10.0156 18.6562 8.29688
Q24.4219 6.59375 29.9844 6.59375
Q38.4219 6.59375 43.0156 9.90625
Q47.6094 13.2344 47.6094 19.3906
Q47.6094 24.75 44.3125 27.7812
Q41.0156 30.8125 33.5 32.3281
L27.4844 33.5
Q16.4531 35.6875 11.5156 40.375
Q6.59375 45.0625 6.59375 53.4219
Q6.59375 63.0938 13.4062 68.6562
Q20.2188 74.2188 32.1719 74.2188
Q37.3125 74.2188 42.625 73.2812
Q47.9531 72.3594 53.5156 70.5156" id="DejaVuSans-53"/>
       <path d="
M56.2031 29.5938
L56.2031 25.2031
L14.8906 25.2031
Q15.4844 15.9219 20.4844 11.0625
Q25.4844 6.20312 34.4219 6.20312
Q39.5938 6.20312 44.4531 7.46875
Q49.3125 8.73438 54.1094 11.2812
L54.1094 2.78125
Q49.2656 0.734375 44.1875 -0.34375
Q39.1094 -1.42188 33.8906 -1.42188
Q20.7969 -1.42188 13.1562 6.1875
Q5.51562 13.8125 5.51562 26.8125
Q5.51562 40.2344 12.7656 48.1094
Q20.0156 56 32.3281 56
Q43.3594 56 49.7812 48.8906
Q56.2031 41.7969 56.2031 29.5938
M47.2188 32.2344
Q47.125 39.5938 43.0938 43.9844
Q39.0625 48.3906 32.4219 48.3906
Q24.9062 48.3906 20.3906 44.1406
Q15.875 39.8906 15.1875 32.1719
z
" id="DejaVuSans-65"/>
       <path d="
M18.1094 8.20312
L18.1094 -20.7969
L9.07812 -20.7969
L9.07812 54.6875
L18.1094 54.6875
L18.1094 46.3906
Q20.9531 51.2656 25.2656 53.625
Q29.5938 56 35.5938 56
Q45.5625 56 51.7812 48.0938
Q58.0156 40.1875 58.0156 27.2969
Q58.0156 14.4062 51.7812 6.48438
Q45.5625 -1.42188 35.5938 -1.42188
Q29.5938 -1.42188 25.2656 0.953125
Q20.9531 3.32812 18.1094 8.20312
M48.6875 27.2969
Q48.6875 37.2031 44.6094 42.8438
Q40.5312 48.4844 33.4062 48.4844
Q26.2656 48.4844 22.1875 42.8438
Q18.1094 37.2031 18.1094 27.2969
Q18.1094 17.3906 22.1875 11.75
Q26.2656 6.10938 33.4062 6.10938
Q40.5312 6.10938 44.6094 11.75
Q48.6875 17.3906 48.6875 27.2969" id="DejaVuSans-70"/>
      </defs>
      <g transform="translate(135.871821646 381.859875)scale(0.12 -0.12)">
       <use xlink:href="#DejaVuSans-53"/>
       <use x="63.4765625" xlink:href="#DejaVuSans-65"/>
       <use x="125.0" xlink:href="#DejaVuSans-70"/>
       <use x="188.4765625" xlink:href="#DejaVuSans-20"/>
       <use x="220.263671875" xlink:href="#DejaVuSans-32"/>
       <use x="283.88671875" xlink:href="#DejaVuSans-30"/>
       <use x="347.509765625" xlink:href="#DejaVuSans-31"/>
       <use x="411.1328125" xlink:href="#DejaVuSans-35"/>
      </g>
     </g>
    </g>
    <g id="xtick_3">
     <g id="line2d_18">
      <path clip-path="url(#p5cf7c6b60c)" d="
M237.63 368.742
L237.63 23.1417" style="fill:none;stroke:#000000;stroke-dasharray:1.000000,3.000000;stroke-dashoffset:0.0;stroke-width:0.5;"/>
     </g>
     <g id="line2d_19">
      <g>
       <use style="stroke:#000000;stroke-width:0.5;" x="237.629756098" xlink:href="#m93b0483c22" y="368.74175"/>
      </g>
     </g>
     <g id="line2d_20">
      <g>
       <use style="stroke:#000000;stroke-width:0.5;" x="237.629756098" xlink:href="#m741efc42ff" y="23.14175"/>
      </g>
     </g>
     <g id="text_3">
      <!-- Nov 2015 -->
      <defs>
       <path d="
M30.6094 48.3906
Q23.3906 48.3906 19.1875 42.75
Q14.9844 37.1094 14.9844 27.2969
Q14.9844 17.4844 19.1562 11.8438
Q23.3438 6.20312 30.6094 6.20312
Q37.7969 6.20312 41.9844 11.8594
Q46.1875 17.5312 46.1875 27.2969
Q46.1875 37.0156 41.9844 42.7031
Q37.7969 48.3906 30.6094 48.3906
M30.6094 56
Q42.3281 56 49.0156 48.375
Q55.7188 40.7656 55.7188 27.2969
Q55.7188 13.875 49.0156 6.21875
Q42.3281 -1.42188 30.6094 -1.42188
Q18.8438 -1.42188 12.1719 6.21875
Q5.51562 13.875 5.51562 27.2969
Q5.51562 40.7656 12.1719 48.375
Q18.8438 56 30.6094 56" id="DejaVuSans-6f"/>
       <path d="
M9.8125 72.9062
L23.0938 72.9062
L55.4219 11.9219
L55.4219 72.9062
L64.9844 72.9062
L64.9844 0
L51.7031 0
L19.3906 60.9844
L19.3906 0
L9.8125 0
z
" id="DejaVuSans-4e"/>
       <path d="
M2.98438 54.6875
L12.5 54.6875
L29.5938 8.79688
L46.6875 54.6875
L56.2031 54.6875
L35.6875 0
L23.4844 0
z
" id="DejaVuSans-76"/>
      </defs>
      <g transform="translate(209.265693598 381.859875)scale(0.12 -0.12)">
       <use xlink:href="#DejaVuSans-4e"/>
       <use x="74.8046875" xlink:href="#DejaVuSans-6f"/>
       <use x="135.986328125" xlink:href="#DejaVuSans-76"/>
       <use x="195.166015625" xlink:href="#DejaVuSans-20"/>
       <use x="226.953125" xlink:href="#DejaVuSans-32"/>
       <use x="290.576171875" xlink:href="#DejaVuSans-30"/>
       <use x="354.19921875" xlink:href="#DejaVuSans-31"/>
       <use x="417.822265625" xlink:href="#DejaVuSans-35"/>
      </g>
     </g>
    </g>
    <g id="xtick_4">
     <g id="line2d_21">
      <path clip-path="url(#p5cf7c6b60c)" d="
M311.425 368.742
L311.425 23.1417" style="fill:none;stroke:#000000;stroke-dasharray:1.000000,3.000000;stroke-dashoffset:0.0;stroke-width:0.5;"/>
     </g>
     <g id="line2d_22">
      <g>
       <use style="stroke:#000000;stroke-width:0.5;" x="311.424878049" xlink:href="#m93b0483c22" y="368.74175"/>
      </g>
     </g>
     <g id="line2d_23">
      <g>
       <use style="stroke:#000000;stroke-width:0.5;" x="311.424878049" xlink:href="#m741efc42ff" y="23.14175"/>
      </g>
     </g>
     <g id="text_4">
      <!-- Jan 2016 -->
      <defs>
       <path d="
M54.8906 33.0156
L54.8906 0
L45.9062 0
L45.9062 32.7188
Q45.9062 40.4844 42.875 44.3281
Q39.8438 48.1875 33.7969 48.1875
Q26.5156 48.1875 22.3125 43.5469
Q18.1094 38.9219 18.1094 30.9062
L18.1094 0
L9.07812 0
L9.07812 54.6875
L18.1094 54.6875
L18.1094 46.1875
Q21.3438 51.125 25.7031 53.5625
Q30.0781 56 35.7969 56
Q45.2188 56 50.0469 50.1719
Q54.8906 44.3438 54.8906 33.0156" id="DejaVuSans-6e"/>
       <path d="
M33.0156 40.375
Q26.375 40.375 22.4844 35.8281
Q18.6094 31.2969 18.6094 23.3906
Q18.6094 15.5312 22.4844 10.9531
Q26.375 6.39062 33.0156 6.39062
Q39.6562 6.39062 43.5312 10.9531
Q47.4062 15.5312 47.4062 23.3906
Q47.4062 31.2969 43.5312 35.8281
Q39.6562 40.375 33.0156 40.375
M52.5938 71.2969
L52.5938 62.3125
Q48.875 64.0625 45.0938 64.9844
Q41.3125 65.9219 37.5938 65.9219
Q27.8281 65.9219 22.6719 59.3281
Q17.5312 52.7344 16.7969 39.4062
Q19.6719 43.6562 24.0156 45.9219
Q28.375 48.1875 33.5938 48.1875
Q44.5781 48.1875 50.9531 41.5156
Q57.3281 34.8594 57.3281 23.3906
Q57.3281 12.1562 50.6875 5.35938
Q44.0469 -1.42188 33.0156 -1.42188
Q20.3594 -1.42188 13.6719 8.26562
Q6.98438 17.9688 6.98438 36.375
Q6.98438 53.6562 15.1875 63.9375
Q23.3906 74.2188 37.2031 74.2188
Q40.9219 74.2188 44.7031 73.4844
Q48.4844 72.75 52.5938 71.2969" id="DejaVuSans-36"/>
       <path d="
M34.2812 27.4844
Q23.3906 27.4844 19.1875 25
Q14.9844 22.5156 14.9844 16.5
Q14.9844 11.7188 18.1406 8.90625
Q21.2969 6.10938 26.7031 6.10938
Q34.1875 6.10938 38.7031 11.4062
Q43.2188 16.7031 43.2188 25.4844
L43.2188 27.4844
z

M52.2031 31.2031
L52.2031 0
L43.2188 0
L43.2188 8.29688
Q40.1406 3.32812 35.5469 0.953125
Q30.9531 -1.42188 24.3125 -1.42188
Q15.9219 -1.42188 10.9531 3.29688
Q6 8.01562 6 15.9219
Q6 25.1406 12.1719 29.8281
Q18.3594 34.5156 30.6094 34.5156
L43.2188 34.5156
L43.2188 35.4062
Q43.2188 41.6094 39.1406 45
Q35.0625 48.3906 27.6875 48.3906
Q23 48.3906 18.5469 47.2656
Q14.1094 46.1406 10.0156 43.8906
L10.0156 52.2031
Q14.9375 54.1094 19.5781 55.0469
Q24.2188 56 28.6094 56
Q40.4844 56 46.3438 49.8438
Q52.2031 43.7031 52.2031 31.2031" id="DejaVuSans-61"/>
      </defs>
      <g transform="translate(285.066128049 381.859875)scale(0.12 -0.12)">
       <use xlink:href="#DejaVuSans-4a"/>
       <use x="29.4921875" xlink:href="#DejaVuSans-61"/>
       <use x="90.771484375" xlink:href="#DejaVuSans-6e"/>
       <use x="154.150390625" xlink:href="#DejaVuSans-20"/>
       <use x="185.9375" xlink:href="#DejaVuSans-32"/>
       <use x="249.560546875" xlink:href="#DejaVuSans-30"/>
       <use x="313.18359375" xlink:href="#DejaVuSans-31"/>
       <use x="376.806640625" xlink:href="#DejaVuSans-36"/>
      </g>
     </g>
    </g>
    <g id="xtick_5">
     <g id="line2d_24">
      <path clip-path="url(#p5cf7c6b60c)" d="
M384.01 368.742
L384.01 23.1417" style="fill:none;stroke:#000000;stroke-dasharray:1.000000,3.000000;stroke-dashoffset:0.0;stroke-width:0.5;"/>
     </g>
     <g id="line2d_25">
      <g>
       <use style="stroke:#000000;stroke-width:0.5;" x="384.010243903" xlink:href="#m93b0483c22" y="368.74175"/>
      </g>
     </g>
     <g id="line2d_26">
      <g>
       <use style="stroke:#000000;stroke-width:0.5;" x="384.010243903" xlink:href="#m741efc42ff" y="23.14175"/>
      </g>
     </g>
     <g id="text_5">
      <!-- Mar 2016 -->
      <defs>
       <path d="
M9.8125 72.9062
L24.5156 72.9062
L43.1094 23.2969
L61.8125 72.9062
L76.5156 72.9062
L76.5156 0
L66.8906 0
L66.8906 64.0156
L48.0938 14.0156
L38.1875 14.0156
L19.3906 64.0156
L19.3906 0
L9.8125 0
z
" id="DejaVuSans-4d"/>
       <path d="
M41.1094 46.2969
Q39.5938 47.1719 37.8125 47.5781
Q36.0312 48 33.8906 48
Q26.2656 48 22.1875 43.0469
Q18.1094 38.0938 18.1094 28.8125
L18.1094 0
L9.07812 0
L9.07812 54.6875
L18.1094 54.6875
L18.1094 46.1875
Q20.9531 51.1719 25.4844 53.5781
Q30.0312 56 36.5312 56
Q37.4531 56 38.5781 55.875
Q39.7031 55.7656 41.0625 55.5156
z
" id="DejaVuSans-72"/>
      </defs>
      <g transform="translate(355.890868903 381.859875)scale(0.12 -0.12)">
       <use xlink:href="#DejaVuSans-4d"/>
       <use x="86.279296875" xlink:href="#DejaVuSans-61"/>
       <use x="147.55859375" xlink:href="#DejaVuSans-72"/>
       <use x="188.671875" xlink:href="#DejaVuSans-20"/>
       <use x="220.458984375" xlink:href="#DejaVuSans-32"/>
       <use x="284.08203125" xlink:href="#DejaVuSans-30"/>
       <use x="347.705078125" xlink:href="#DejaVuSans-31"/>
       <use x="411.328125" xlink:href="#DejaVuSans-36"/>
      </g>
     </g>
    </g>
    <g id="xtick_6">
     <g id="line2d_27">
      <path clip-path="url(#p5cf7c6b60c)" d="
M457.805 368.742
L457.805 23.1417" style="fill:none;stroke:#000000;stroke-dasharray:1.000000,3.000000;stroke-dashoffset:0.0;stroke-width:0.5;"/>
     </g>
     <g id="line2d_28">
      <g>
       <use style="stroke:#000000;stroke-width:0.5;" x="457.805365854" xlink:href="#m93b0483c22" y="368.74175"/>
      </g>
     </g>
     <g id="line2d_29">
      <g>
       <use style="stroke:#000000;stroke-width:0.5;" x="457.805365854" xlink:href="#m741efc42ff" y="23.14175"/>
      </g>
     </g>
     <g id="text_6">
      <!-- May 2016 -->
      <defs>
       <path d="
M32.1719 -5.07812
Q28.375 -14.8438 24.75 -17.8125
Q21.1406 -20.7969 15.0938 -20.7969
L7.90625 -20.7969
L7.90625 -13.2812
L13.1875 -13.2812
Q16.8906 -13.2812 18.9375 -11.5156
Q21 -9.76562 23.4844 -3.21875
L25.0938 0.875
L2.98438 54.6875
L12.5 54.6875
L29.5938 11.9219
L46.6875 54.6875
L56.2031 54.6875
z
" id="DejaVuSans-79"/>
      </defs>
      <g transform="translate(428.601303354 381.859875)scale(0.12 -0.12)">
       <use xlink:href="#DejaVuSans-4d"/>
       <use x="86.279296875" xlink:href="#DejaVuSans-61"/>
       <use x="147.55859375" xlink:href="#DejaVuSans-79"/>
       <use x="206.73828125" xlink:href="#DejaVuSans-20"/>
       <use x="238.525390625" xlink:href="#DejaVuSans-32"/>
       <use x="302.1484375" xlink:href="#DejaVuSans-30"/>
       <use x="365.771484375" xlink:href="#DejaVuSans-31"/>
       <use x="429.39453125" xlink:href="#DejaVuSans-36"/>
      </g>
     </g>
    </g>
   </g>
   <g id="matplotlib.axis_2">
    <g id="ytick_1">
     <g id="line2d_30">
      <path clip-path="url(#p5cf7c6b60c)" d="
M38.02 368.742
L484.42 368.742" style="fill:none;stroke:#000000;stroke-dasharray:1.000000,3.000000;stroke-dashoffset:0.0;stroke-width:0.5;"/>
     </g>
     <g id="line2d_31">
      <defs>
       <path d="
M0 0
L4 0" id="m728421d6d4" style="stroke:#000000;stroke-width:0.5;"/>
      </defs>
      <g>
       <use style="stroke:#000000;stroke-width:0.5;" x="38.02" xlink:href="#m728421d6d4" y="368.74175"/>
      </g>
     </g>
     <g id="line2d_32">
      <defs>
       <path d="
M0 0
L-4 0" id="mcb0005524f" style="stroke:#000000;stroke-width:0.5;"/>
      </defs>
      <g>
       <use style="stroke:#000000;stroke-width:0.5;" x="484.42" xlink:href="#mcb0005524f" y="368.74175"/>
      </g>
     </g>
     <g id="text_7">
      <!-- −0.5 -->
      <defs>
       <path d="
M10.6875 12.4062
L21 12.4062
L21 0
L10.6875 0
z
" id="DejaVuSans-2e"/>
       <path d="
M10.5938 35.5
L73.1875 35.5
L73.1875 27.2031
L10.5938 27.2031
z
" id="DejaVuSans-2212"/>
      </defs>
      <g transform="translate(7.2 372.053)scale(0.12 -0.12)">
       <use xlink:href="#DejaVuSans-2212"/>
       <use x="83.7890625" xlink:href="#DejaVuSans-30"/>
       <use x="147.412109375" xlink:href="#DejaVuSans-2e"/>
       <use x="179.19921875" xlink:href="#DejaVuSans-35"/>
      </g>
     </g>
    </g>
    <g id="ytick_2">
     <g id="line2d_33">
      <path clip-path="url(#p5cf7c6b60c)" d="
M38.02 299.622
L484.42 299.622" style="fill:none;stroke:#000000;stroke-dasharray:1.000000,3.000000;stroke-dashoffset:0.0;stroke-width:0.5;"/>
     </g>
     <g id="line2d_34">
      <g>
       <use style="stroke:#000000;stroke-width:0.5;" x="38.02" xlink:href="#m728421d6d4" y="299.62175"/>
      </g>
     </g>
     <g id="line2d_35">
      <g>
       <use style="stroke:#000000;stroke-width:0.5;" x="484.42" xlink:href="#mcb0005524f" y="299.62175"/>
      </g>
     </g>
     <g id="text_8">
      <!-- 0.0 -->
      <g transform="translate(16.524375 302.933)scale(0.12 -0.12)">
       <use xlink:href="#DejaVuSans-30"/>
       <use x="63.623046875" xlink:href="#DejaVuSans-2e"/>
       <use x="95.41015625" xlink:href="#DejaVuSans-30"/>
      </g>
     </g>
    </g>
    <g id="ytick_3">
     <g id="line2d_36">
      <path clip-path="url(#p5cf7c6b60c)" d="
M38.02 230.502
L484.42 230.502" style="fill:none;stroke:#000000;stroke-dasharray:1.000000,3.000000;stroke-dashoffset:0.0;stroke-width:0.5;"/>
     </g>
     <g id="line2d_37">
      <g>
       <use style="stroke:#000000;stroke-width:0.5;" x="38.02" xlink:href="#m728421d6d4" y="230.50175"/>
      </g>
     </g>
     <g id="line2d_38">
      <g>
       <use style="stroke:#000000;stroke-width:0.5;" x="484.42" xlink:href="#mcb0005524f" y="230.50175"/>
      </g>
     </g>
     <g id="text_9">
      <!-- 0.5 -->
      <g transform="translate(16.775625 233.813)scale(0.12 -0.12)">
       <use xlink:href="#DejaVuSans-30"/>
       <use x="63.623046875" xlink:href="#DejaVuSans-2e"/>
       <use x="95.41015625" xlink:href="#DejaVuSans-35"/>
      </g>
     </g>
    </g>
    <g id="ytick_4">
     <g id="line2d_39">
      <path clip-path="url(#p5cf7c6b60c)" d="
M38.02 161.382
L484.42 161.382" style="fill:none;stroke:#000000;stroke-dasharray:1.000000,3.000000;stroke-dashoffset:0.0;stroke-width:0.5;"/>
     </g>
     <g id="line2d_40">
      <g>
       <use style="stroke:#000000;stroke-width:0.5;" x="38.02" xlink:href="#m728421d6d4" y="161.38175"/>
      </g>
     </g>
     <g id="line2d_41">
      <g>
       <use style="stroke:#000000;stroke-width:0.5;" x="484.42" xlink:href="#mcb0005524f" y="161.38175"/>
      </g>
     </g>
     <g id="text_10">
      <!-- 1.0 -->
      <g transform="translate(17.05125 164.693)scale(0.12 -0.12)">
       <use xlink:href="#DejaVuSans-31"/>
       <use x="63.623046875" xlink:href="#DejaVuSans-2e"/>
       <use x="95.41015625" xlink:href="#DejaVuSans-30"/>
      </g>
     </g>
    </g>
    <g id="ytick_5">
     <g id="line2d_42">
      <path clip-path="url(#p5cf7c6b60c)" d="
M38.02 92.2618
L484.42 92.2618" style="fill:none;stroke:#000000;stroke-dasharray:1.000000,3.000000;stroke-dashoffset:0.0;stroke-width:0.5;"/>
     </g>
     <g id="line2d_43">
      <g>
       <use style="stroke:#000000;stroke-width:0.5;" x="38.02" xlink:href="#m728421d6d4" y="92.26175"/>
      </g>
     </g>
     <g id="line2d_44">
      <g>
       <use style="stroke:#000000;stroke-width:0.5;" x="484.42" xlink:href="#mcb0005524f" y="92.26175"/>
      </g>
     </g>
     <g id="text_11">
      <!-- 1.5 -->
      <g transform="translate(17.3025 95.573)scale(0.12 -0.12)">
       <use xlink:href="#DejaVuSans-31"/>
       <use x="63.623046875" xlink:href="#DejaVuSans-2e"/>
       <use x="95.41015625" xlink:href="#DejaVuSans-35"/>
      </g>
     </g>
    </g>
    <g id="ytick_6">
     <g id="line2d_45">
      <path clip-path="url(#p5cf7c6b60c)" d="
M38.02 23.1418
L484.42 23.1418" style="fill:none;stroke:#000000;stroke-dasharray:1.000000,3.000000;stroke-dashoffset:0.0;stroke-width:0.5;"/>
     </g>
     <g id="line2d_46">
      <g>
       <use style="stroke:#000000;stroke-width:0.5;" x="38.02" xlink:href="#m728421d6d4" y="23.14175"/>
      </g>
     </g>
     <g id="line2d_47">
      <g>
       <use style="stroke:#000000;stroke-width:0.5;" x="484.42" xlink:href="#mcb0005524f" y="23.14175"/>
      </g>
     </g>
     <g id="text_12">
      <!-- 2.0 -->
      <g transform="translate(16.6125 26.453)scale(0.12 -0.12)">
       <use xlink:href="#DejaVuSans-32"/>
       <use x="63.623046875" xlink:href="#DejaVuSans-2e"/>
       <use x="95.41015625" xlink:href="#DejaVuSans-30"/>
      </g>
     </g>
    </g>
   </g>
   <g id="patch_3">
    <path d="
M38.02 23.1417
L484.42 23.1417" style="fill:none;stroke:#000000;"/>
   </g>
   <g id="patch_4">
    <path d="
M484.42 368.742
L484.42 23.1418" style="fill:none;stroke:#000000;"/>
   </g>
   <g id="patch_5">
    <path d="
M38.02 368.742
L484.42 368.742" style="fill:none;stroke:#000000;"/>
   </g>
   <g id="patch_6">
    <path d="
M38.02 368.742
L38.02 23.1418" style="fill:none;stroke:#000000;"/>
   </g>
   <g id="text_13">
    <!-- SPY forecast: random forest with 100 trees, period=42 -->
    <defs>
     <path d="
M11.7188 12.4062
L22.0156 12.4062
L22.0156 0
L11.7188 0
z

M11.7188 51.7031
L22.0156 51.7031
L22.0156 39.3125
L11.7188 39.3125
z
" id="DejaVuSans-3a"/>
     <path d="
M11.7188 12.4062
L22.0156 12.4062
L22.0156 4
L14.0156 -11.625
L7.71875 -11.625
L11.7188 4
z
" id="DejaVuSans-2c"/>
     <path d="
M4.20312 54.6875
L13.1875 54.6875
L24.4219 12.0156
L35.5938 54.6875
L46.1875 54.6875
L57.4219 12.0156
L68.6094 54.6875
L77.5938 54.6875
L63.2812 0
L52.6875 0
L40.9219 44.8281
L29.1094 0
L18.5 0
z
" id="DejaVuSans-77"/>
     <path d="
M52 44.1875
Q55.375 50.25 60.0625 53.125
Q64.75 56 71.0938 56
Q79.6406 56 84.2812 50.0156
Q88.9219 44.0469 88.9219 33.0156
L88.9219 0
L79.8906 0
L79.8906 32.7188
Q79.8906 40.5781 77.0938 44.375
Q74.3125 48.1875 68.6094 48.1875
Q61.625 48.1875 57.5625 43.5469
Q53.5156 38.9219 53.5156 30.9062
L53.5156 0
L44.4844 0
L44.4844 32.7188
Q44.4844 40.625 41.7031 44.4062
Q38.9219 48.1875 33.1094 48.1875
Q26.2188 48.1875 22.1562 43.5312
Q18.1094 38.875 18.1094 30.9062
L18.1094 0
L9.07812 0
L9.07812 54.6875
L18.1094 54.6875
L18.1094 46.1875
Q21.1875 51.2188 25.4844 53.6094
Q29.7812 56 35.6875 56
Q41.6562 56 45.8281 52.9688
Q50 49.9531 52 44.1875" id="DejaVuSans-6d"/>
     <path d="
M-0.203125 72.9062
L10.4062 72.9062
L30.6094 42.9219
L50.6875 72.9062
L61.2812 72.9062
L35.5 34.7188
L35.5 0
L25.5938 0
L25.5938 34.7188
z
" id="DejaVuSans-59"/>
     <path d="
M37.7969 64.3125
L12.8906 25.3906
L37.7969 25.3906
z

M35.2031 72.9062
L47.6094 72.9062
L47.6094 25.3906
L58.0156 25.3906
L58.0156 17.1875
L47.6094 17.1875
L47.6094 0
L37.7969 0
L37.7969 17.1875
L4.89062 17.1875
L4.89062 26.7031
z
" id="DejaVuSans-34"/>
     <path d="
M54.8906 33.0156
L54.8906 0
L45.9062 0
L45.9062 32.7188
Q45.9062 40.4844 42.875 44.3281
Q39.8438 48.1875 33.7969 48.1875
Q26.5156 48.1875 22.3125 43.5469
Q18.1094 38.9219 18.1094 30.9062
L18.1094 0
L9.07812 0
L9.07812 75.9844
L18.1094 75.9844
L18.1094 46.1875
Q21.3438 51.125 25.7031 53.5625
Q30.0781 56 35.7969 56
Q45.2188 56 50.0469 50.1719
Q54.8906 44.3438 54.8906 33.0156" id="DejaVuSans-68"/>
     <path d="
M9.42188 54.6875
L18.4062 54.6875
L18.4062 0
L9.42188 0
z

M9.42188 75.9844
L18.4062 75.9844
L18.4062 64.5938
L9.42188 64.5938
z
" id="DejaVuSans-69"/>
     <path d="
M37.1094 75.9844
L37.1094 68.5
L28.5156 68.5
Q23.6875 68.5 21.7969 66.5469
Q19.9219 64.5938 19.9219 59.5156
L19.9219 54.6875
L34.7188 54.6875
L34.7188 47.7031
L19.9219 47.7031
L19.9219 0
L10.8906 0
L10.8906 47.7031
L2.29688 47.7031
L2.29688 54.6875
L10.8906 54.6875
L10.8906 58.5
Q10.8906 67.625 15.1406 71.7969
Q19.3906 75.9844 28.6094 75.9844
z
" id="DejaVuSans-66"/>
     <path d="
M18.3125 70.2188
L18.3125 54.6875
L36.8125 54.6875
L36.8125 47.7031
L18.3125 47.7031
L18.3125 18.0156
Q18.3125 11.3281 20.1406 9.42188
Q21.9688 7.51562 27.5938 7.51562
L36.8125 7.51562
L36.8125 0
L27.5938 0
Q17.1875 0 13.2344 3.875
Q9.28125 7.76562 9.28125 18.0156
L9.28125 47.7031
L2.6875 47.7031
L2.6875 54.6875
L9.28125 54.6875
L9.28125 70.2188
z
" id="DejaVuSans-74"/>
     <path d="
M45.4062 46.3906
L45.4062 75.9844
L54.3906 75.9844
L54.3906 0
L45.4062 0
L45.4062 8.20312
Q42.5781 3.32812 38.25 0.953125
Q33.9375 -1.42188 27.875 -1.42188
Q17.9688 -1.42188 11.7344 6.48438
Q5.51562 14.4062 5.51562 27.2969
Q5.51562 40.1875 11.7344 48.0938
Q17.9688 56 27.875 56
Q33.9375 56 38.25 53.625
Q42.5781 51.2656 45.4062 46.3906
M14.7969 27.2969
Q14.7969 17.3906 18.875 11.75
Q22.9531 6.10938 30.0781 6.10938
Q37.2031 6.10938 41.2969 11.75
Q45.4062 17.3906 45.4062 27.2969
Q45.4062 37.2031 41.2969 42.8438
Q37.2031 48.4844 30.0781 48.4844
Q22.9531 48.4844 18.875 42.8438
Q14.7969 37.2031 14.7969 27.2969" id="DejaVuSans-64"/>
     <path d="
M19.6719 64.7969
L19.6719 37.4062
L32.0781 37.4062
Q38.9688 37.4062 42.7188 40.9688
Q46.4844 44.5312 46.4844 51.125
Q46.4844 57.6719 42.7188 61.2344
Q38.9688 64.7969 32.0781 64.7969
z

M9.8125 72.9062
L32.0781 72.9062
Q44.3438 72.9062 50.6094 67.3594
Q56.8906 61.8125 56.8906 51.125
Q56.8906 40.3281 50.6094 34.8125
Q44.3438 29.2969 32.0781 29.2969
L19.6719 29.2969
L19.6719 0
L9.8125 0
z
" id="DejaVuSans-50"/>
     <path d="
M48.7812 52.5938
L48.7812 44.1875
Q44.9688 46.2969 41.1406 47.3438
Q37.3125 48.3906 33.4062 48.3906
Q24.6562 48.3906 19.8125 42.8438
Q14.9844 37.3125 14.9844 27.2969
Q14.9844 17.2812 19.8125 11.7344
Q24.6562 6.20312 33.4062 6.20312
Q37.3125 6.20312 41.1406 7.25
Q44.9688 8.29688 48.7812 10.4062
L48.7812 2.09375
Q45.0156 0.34375 40.9844 -0.53125
Q36.9688 -1.42188 32.4219 -1.42188
Q20.0625 -1.42188 12.7812 6.34375
Q5.51562 14.1094 5.51562 27.2969
Q5.51562 40.6719 12.8594 48.3281
Q20.2188 56 33.0156 56
Q37.1562 56 41.1094 55.1406
Q45.0625 54.2969 48.7812 52.5938" id="DejaVuSans-63"/>
     <path d="
M44.2812 53.0781
L44.2812 44.5781
Q40.4844 46.5312 36.375 47.5
Q32.2812 48.4844 27.875 48.4844
Q21.1875 48.4844 17.8438 46.4375
Q14.5 44.3906 14.5 40.2812
Q14.5 37.1562 16.8906 35.375
Q19.2812 33.5938 26.5156 31.9844
L29.5938 31.2969
Q39.1562 29.25 43.1875 25.5156
Q47.2188 21.7812 47.2188 15.0938
Q47.2188 7.46875 41.1875 3.01562
Q35.1562 -1.42188 24.6094 -1.42188
Q20.2188 -1.42188 15.4531 -0.5625
Q10.6875 0.296875 5.42188 2
L5.42188 11.2812
Q10.4062 8.6875 15.2344 7.39062
Q20.0625 6.10938 24.8125 6.10938
Q31.1562 6.10938 34.5625 8.28125
Q37.9844 10.4531 37.9844 14.4062
Q37.9844 18.0625 35.5156 20.0156
Q33.0625 21.9688 24.7031 23.7812
L21.5781 24.5156
Q13.2344 26.2656 9.51562 29.9062
Q5.8125 33.5469 5.8125 39.8906
Q5.8125 47.6094 11.2812 51.7969
Q16.75 56 26.8125 56
Q31.7812 56 36.1719 55.2656
Q40.5781 54.5469 44.2812 53.0781" id="DejaVuSans-73"/>
     <path d="
M10.5938 45.4062
L73.1875 45.4062
L73.1875 37.2031
L10.5938 37.2031
z

M10.5938 25.4844
L73.1875 25.4844
L73.1875 17.1875
L10.5938 17.1875
z
" id="DejaVuSans-3d"/>
    </defs>
    <g transform="translate(64.90075 18.14175)scale(0.144 -0.144)">
     <use xlink:href="#DejaVuSans-53"/>
     <use x="63.4765625" xlink:href="#DejaVuSans-50"/>
     <use x="121.529296875" xlink:href="#DejaVuSans-59"/>
     <use x="182.61328125" xlink:href="#DejaVuSans-20"/>
     <use x="214.400390625" xlink:href="#DejaVuSans-66"/>
     <use x="249.60546875" xlink:href="#DejaVuSans-6f"/>
     <use x="310.787109375" xlink:href="#DejaVuSans-72"/>
     <use x="349.650390625" xlink:href="#DejaVuSans-65"/>
     <use x="411.173828125" xlink:href="#DejaVuSans-63"/>
     <use x="466.154296875" xlink:href="#DejaVuSans-61"/>
     <use x="527.43359375" xlink:href="#DejaVuSans-73"/>
     <use x="579.533203125" xlink:href="#DejaVuSans-74"/>
     <use x="618.7421875" xlink:href="#DejaVuSans-3a"/>
     <use x="652.43359375" xlink:href="#DejaVuSans-20"/>
     <use x="684.220703125" xlink:href="#DejaVuSans-72"/>
     <use x="725.333984375" xlink:href="#DejaVuSans-61"/>
     <use x="786.61328125" xlink:href="#DejaVuSans-6e"/>
     <use x="849.9921875" xlink:href="#DejaVuSans-64"/>
     <use x="913.46875" xlink:href="#DejaVuSans-6f"/>
     <use x="974.650390625" xlink:href="#DejaVuSans-6d"/>
     <use x="1072.0625" xlink:href="#DejaVuSans-20"/>
     <use x="1103.84960938" xlink:href="#DejaVuSans-66"/>
     <use x="1139.0546875" xlink:href="#DejaVuSans-6f"/>
     <use x="1200.23632812" xlink:href="#DejaVuSans-72"/>
     <use x="1239.09960938" xlink:href="#DejaVuSans-65"/>
     <use x="1300.62304688" xlink:href="#DejaVuSans-73"/>
     <use x="1352.72265625" xlink:href="#DejaVuSans-74"/>
     <use x="1391.93164062" xlink:href="#DejaVuSans-20"/>
     <use x="1423.71875" xlink:href="#DejaVuSans-77"/>
     <use x="1505.50585938" xlink:href="#DejaVuSans-69"/>
     <use x="1533.2890625" xlink:href="#DejaVuSans-74"/>
     <use x="1572.49804688" xlink:href="#DejaVuSans-68"/>
     <use x="1635.87695312" xlink:href="#DejaVuSans-20"/>
     <use x="1667.6640625" xlink:href="#DejaVuSans-31"/>
     <use x="1731.28710938" xlink:href="#DejaVuSans-30"/>
     <use x="1794.91015625" xlink:href="#DejaVuSans-30"/>
     <use x="1858.53320312" xlink:href="#DejaVuSans-20"/>
     <use x="1890.3203125" xlink:href="#DejaVuSans-74"/>
     <use x="1929.52929688" xlink:href="#DejaVuSans-72"/>
     <use x="1968.39257812" xlink:href="#DejaVuSans-65"/>
     <use x="2029.91601562" xlink:href="#DejaVuSans-65"/>
     <use x="2091.43945312" xlink:href="#DejaVuSans-73"/>
     <use x="2143.5390625" xlink:href="#DejaVuSans-2c"/>
     <use x="2175.32617188" xlink:href="#DejaVuSans-20"/>
     <use x="2207.11328125" xlink:href="#DejaVuSans-70"/>
     <use x="2270.58984375" xlink:href="#DejaVuSans-65"/>
     <use x="2332.11328125" xlink:href="#DejaVuSans-72"/>
     <use x="2373.2265625" xlink:href="#DejaVuSans-69"/>
     <use x="2401.00976562" xlink:href="#DejaVuSans-6f"/>
     <use x="2462.19140625" xlink:href="#DejaVuSans-64"/>
     <use x="2525.66796875" xlink:href="#DejaVuSans-3d"/>
     <use x="2609.45703125" xlink:href="#DejaVuSans-34"/>
     <use x="2673.08007812" xlink:href="#DejaVuSans-32"/>
    </g>
   </g>
   <g id="legend_1">
    <g id="patch_7">
     <path d="
M491.235 197.242
L700.42 197.242
L700.42 23.4297
L491.235 23.4297
L491.235 197.242
z
" style="fill:#ffffff;stroke:#000000;"/>
    </g>
    <g id="line2d_48">
     <path d="
M501.315 35.0915
L521.475 35.0915" style="fill:none;stroke:#0000ff;stroke-linecap:square;"/>
    </g>
    <g id="line2d_49"/>
    <g id="text_14">
     <!-- Close -->
     <defs>
      <path d="
M64.4062 67.2812
L64.4062 56.8906
Q59.4219 61.5312 53.7812 63.8125
Q48.1406 66.1094 41.7969 66.1094
Q29.2969 66.1094 22.6562 58.4688
Q16.0156 50.8281 16.0156 36.375
Q16.0156 21.9688 22.6562 14.3281
Q29.2969 6.6875 41.7969 6.6875
Q48.1406 6.6875 53.7812 8.98438
Q59.4219 11.2812 64.4062 15.9219
L64.4062 5.60938
Q59.2344 2.09375 53.4375 0.328125
Q47.6562 -1.42188 41.2188 -1.42188
Q24.6562 -1.42188 15.125 8.70312
Q5.60938 18.8438 5.60938 36.375
Q5.60938 53.9531 15.125 64.0781
Q24.6562 74.2188 41.2188 74.2188
Q47.75 74.2188 53.5312 72.4844
Q59.3281 70.75 64.4062 67.2812" id="DejaVuSans-43"/>
     </defs>
     <g transform="translate(537.31525 40.1315)scale(0.144 -0.144)">
      <use xlink:href="#DejaVuSans-43"/>
      <use x="69.82421875" xlink:href="#DejaVuSans-6c"/>
      <use x="97.607421875" xlink:href="#DejaVuSans-6f"/>
      <use x="158.7890625" xlink:href="#DejaVuSans-73"/>
      <use x="210.888671875" xlink:href="#DejaVuSans-65"/>
     </g>
    </g>
    <g id="line2d_50">
     <path d="
M501.315 56.228
L521.475 56.228" style="fill:none;stroke:#008000;stroke-linecap:square;"/>
    </g>
    <g id="line2d_51"/>
    <g id="text_15">
     <!-- min -->
     <g transform="translate(537.31525 61.268)scale(0.144 -0.144)">
      <use xlink:href="#DejaVuSans-6d"/>
      <use x="97.412109375" xlink:href="#DejaVuSans-69"/>
      <use x="125.1953125" xlink:href="#DejaVuSans-6e"/>
     </g>
    </g>
    <g id="line2d_52">
     <path d="
M501.315 77.3645
L521.475 77.3645" style="fill:none;stroke:#ff0000;stroke-linecap:square;"/>
    </g>
    <g id="line2d_53"/>
    <g id="text_16">
     <!-- max -->
     <defs>
      <path d="
M54.8906 54.6875
L35.1094 28.0781
L55.9062 0
L45.3125 0
L29.3906 21.4844
L13.4844 0
L2.875 0
L24.125 28.6094
L4.6875 54.6875
L15.2812 54.6875
L29.7812 35.2031
L44.2812 54.6875
z
" id="DejaVuSans-78"/>
     </defs>
     <g transform="translate(537.31525 82.4045)scale(0.144 -0.144)">
      <use xlink:href="#DejaVuSans-6d"/>
      <use x="97.412109375" xlink:href="#DejaVuSans-61"/>
      <use x="158.69140625" xlink:href="#DejaVuSans-78"/>
     </g>
    </g>
    <g id="line2d_54">
     <path d="
M501.315 98.501
L521.475 98.501" style="fill:none;stroke:#00bfbf;stroke-linecap:square;"/>
    </g>
    <g id="line2d_55"/>
    <g id="text_17">
     <!-- rsi -->
     <g transform="translate(537.31525 103.541)scale(0.144 -0.144)">
      <use xlink:href="#DejaVuSans-72"/>
      <use x="41.11328125" xlink:href="#DejaVuSans-73"/>
      <use x="93.212890625" xlink:href="#DejaVuSans-69"/>
     </g>
    </g>
    <g id="line2d_56">
     <path d="
M501.315 119.637
L521.475 119.637" style="fill:none;stroke:#ff8c00;stroke-linecap:square;"/>
    </g>
    <g id="line2d_57"/>
    <g id="text_18">
     <!-- mfi42 -->
     <g transform="translate(537.31525 124.6775)scale(0.144 -0.144)">
      <use xlink:href="#DejaVuSans-6d"/>
      <use x="97.412109375" xlink:href="#DejaVuSans-66"/>
      <use x="132.6171875" xlink:href="#DejaVuSans-69"/>
      <use x="160.400390625" xlink:href="#DejaVuSans-34"/>
      <use x="224.0234375" xlink:href="#DejaVuSans-32"/>
     </g>
    </g>
    <g id="line2d_58">
     <path d="
M501.315 140.774
L521.475 140.774" style="fill:none;stroke:#bf00bf;stroke-linecap:square;"/>
    </g>
    <g id="line2d_59"/>
    <g id="text_19">
     <!-- AAII.Bull_Bear_Spread -->
     <defs>
      <path d="
M50.9844 -16.6094
L50.9844 -23.5781
L-0.984375 -23.5781
L-0.984375 -16.6094
z
" id="DejaVuSans-5f"/>
      <path d="
M34.1875 63.1875
L20.7969 26.9062
L47.6094 26.9062
z

M28.6094 72.9062
L39.7969 72.9062
L67.5781 0
L57.3281 0
L50.6875 18.7031
L17.8281 18.7031
L11.1875 0
L0.78125 0
z
" id="DejaVuSans-41"/>
      <path d="
M19.6719 34.8125
L19.6719 8.10938
L35.5 8.10938
Q43.4531 8.10938 47.2812 11.4062
Q51.125 14.7031 51.125 21.4844
Q51.125 28.3281 47.2812 31.5625
Q43.4531 34.8125 35.5 34.8125
z

M19.6719 64.7969
L19.6719 42.8281
L34.2812 42.8281
Q41.5 42.8281 45.0312 45.5312
Q48.5781 48.25 48.5781 53.8125
Q48.5781 59.3281 45.0312 62.0625
Q41.5 64.7969 34.2812 64.7969
z

M9.8125 72.9062
L35.0156 72.9062
Q46.2969 72.9062 52.3906 68.2188
Q58.5 63.5312 58.5 54.8906
Q58.5 48.1875 55.375 44.2344
Q52.25 40.2812 46.1875 39.3125
Q53.4688 37.75 57.5 32.7812
Q61.5312 27.8281 61.5312 20.4062
Q61.5312 10.6406 54.8906 5.3125
Q48.25 0 35.9844 0
L9.8125 0
z
" id="DejaVuSans-42"/>
      <path d="
M9.8125 72.9062
L19.6719 72.9062
L19.6719 0
L9.8125 0
z
" id="DejaVuSans-49"/>
     </defs>
     <g transform="translate(537.31525 145.814)scale(0.144 -0.144)">
      <use xlink:href="#DejaVuSans-41"/>
      <use x="71.158203125" xlink:href="#DejaVuSans-41"/>
      <use x="139.56640625" xlink:href="#DejaVuSans-49"/>
      <use x="169.05859375" xlink:href="#DejaVuSans-49"/>
      <use x="198.55078125" xlink:href="#DejaVuSans-2e"/>
      <use x="230.337890625" xlink:href="#DejaVuSans-42"/>
      <use x="298.94140625" xlink:href="#DejaVuSans-75"/>
      <use x="362.3203125" xlink:href="#DejaVuSans-6c"/>
      <use x="390.103515625" xlink:href="#DejaVuSans-6c"/>
      <use x="417.88671875" xlink:href="#DejaVuSans-5f"/>
      <use x="467.88671875" xlink:href="#DejaVuSans-42"/>
      <use x="536.490234375" xlink:href="#DejaVuSans-65"/>
      <use x="598.013671875" xlink:href="#DejaVuSans-61"/>
      <use x="659.29296875" xlink:href="#DejaVuSans-72"/>
      <use x="700.40625" xlink:href="#DejaVuSans-5f"/>
      <use x="750.40625" xlink:href="#DejaVuSans-53"/>
      <use x="813.8828125" xlink:href="#DejaVuSans-70"/>
      <use x="877.359375" xlink:href="#DejaVuSans-72"/>
      <use x="916.22265625" xlink:href="#DejaVuSans-65"/>
      <use x="977.74609375" xlink:href="#DejaVuSans-61"/>
      <use x="1039.02539062" xlink:href="#DejaVuSans-64"/>
     </g>
    </g>
    <g id="line2d_60">
     <path d="
M501.315 162.311
L521.475 162.311" style="fill:none;stroke:#808080;stroke-linecap:square;"/>
    </g>
    <g id="line2d_61"/>
    <g id="text_20">
     <!-- priceindex42 -->
     <g transform="translate(537.31525 167.351)scale(0.144 -0.144)">
      <use xlink:href="#DejaVuSans-70"/>
      <use x="63.4765625" xlink:href="#DejaVuSans-72"/>
      <use x="104.58984375" xlink:href="#DejaVuSans-69"/>
      <use x="132.373046875" xlink:href="#DejaVuSans-63"/>
      <use x="187.353515625" xlink:href="#DejaVuSans-65"/>
      <use x="248.876953125" xlink:href="#DejaVuSans-69"/>
      <use x="276.66015625" xlink:href="#DejaVuSans-6e"/>
      <use x="340.0390625" xlink:href="#DejaVuSans-64"/>
      <use x="403.515625" xlink:href="#DejaVuSans-65"/>
      <use x="463.2890625" xlink:href="#DejaVuSans-78"/>
      <use x="522.46875" xlink:href="#DejaVuSans-34"/>
      <use x="586.091796875" xlink:href="#DejaVuSans-32"/>
     </g>
    </g>
    <g id="line2d_62">
     <path d="
M501.315 183.447
L521.475 183.447" style="fill:none;stroke:#000000;stroke-linecap:square;"/>
    </g>
    <g id="line2d_63"/>
    <g id="text_21">
     <!-- priceindex42 forecast -->
     <g transform="translate(537.31525 188.4875)scale(0.144 -0.144)">
      <use xlink:href="#DejaVuSans-70"/>
      <use x="63.4765625" xlink:href="#DejaVuSans-72"/>
      <use x="104.58984375" xlink:href="#DejaVuSans-69"/>
      <use x="132.373046875" xlink:href="#DejaVuSans-63"/>
      <use x="187.353515625" xlink:href="#DejaVuSans-65"/>
      <use x="248.876953125" xlink:href="#DejaVuSans-69"/>
      <use x="276.66015625" xlink:href="#DejaVuSans-6e"/>
      <use x="340.0390625" xlink:href="#DejaVuSans-64"/>
      <use x="403.515625" xlink:href="#DejaVuSans-65"/>
      <use x="463.2890625" xlink:href="#DejaVuSans-78"/>
      <use x="522.46875" xlink:href="#DejaVuSans-34"/>
      <use x="586.091796875" xlink:href="#DejaVuSans-32"/>
      <use x="649.71484375" xlink:href="#DejaVuSans-20"/>
      <use x="681.501953125" xlink:href="#DejaVuSans-66"/>
      <use x="716.70703125" xlink:href="#DejaVuSans-6f"/>
      <use x="777.888671875" xlink:href="#DejaVuSans-72"/>
      <use x="816.751953125" xlink:href="#DejaVuSans-65"/>
      <use x="878.275390625" xlink:href="#DejaVuSans-63"/>
      <use x="933.255859375" xlink:href="#DejaVuSans-61"/>
      <use x="994.53515625" xlink:href="#DejaVuSans-73"/>
      <use x="1046.63476562" xlink:href="#DejaVuSans-74"/>
     </g>
    </g>
   </g>
  </g>
 </g>
 <defs>
  <clipPath id="p5cf7c6b60c">
   <rect height="345.6" width="446.4" x="38.02" y="23.14175"/>
  </clipPath>
 </defs>
</svg>
